<svg enable-background="new 0 0 80 80" height="150" viewBox="0 0 80 80" width="150" xmlns="http://www.w3.org/2000/svg"><path d="m.5 11.5h79v55h-79z" fill="#8bb7f0"/><path d="m79 12v54h-78v-54zm1-1h-80v56h80z" fill="#4e7ab5"/><path d="m40 17 1.003 2.046 2.24.326-1.621 1.591.383 2.25-2.005-1.061-2.004 1.062.383-2.25-1.621-1.591 2.24-.326zm-9.632 2.9 1.003 2.046 2.24.328-1.621 1.591.383 2.25-2.004-1.062-2.004 1.062.381-2.25-1.621-1.591 2.242-.328zm-6.844 6.357 1.003 2.046 2.242.326-1.621 1.591.381 2.249-2.004-1.062-2.004 1.062.383-2.249-1.621-1.591 2.24-.326zm26.108-6.357-1.003 2.046-2.24.328 1.621 1.591-.383 2.25 2.004-1.062 2.004 1.062-.381-2.25 1.621-1.591-2.242-.328zm-19.264 30.916 1.003 2.046 2.24.328-1.621 1.591.383 2.25-2.004-1.061-2.004 1.061.381-2.25-1.621-1.591 2.242-.328zm19.264 0-1.003 2.046-2.24.328 1.621 1.591-.383 2.25 2.004-1.061 2.004 1.061-.381-2.25 1.621-1.591-2.242-.328zm6.844-24.559-1.003 2.046-2.242.326 1.621 1.591-.382 2.25 2.004-1.062 2.004 1.062-.383-2.249 1.621-1.591-2.24-.326zm-32.952 18.111 1.003 2.046 2.242.328-1.621 1.591.381 2.249-2.004-1.062-2.004 1.062.383-2.249-1.621-1.591 2.24-.328zm32.952 0-1.003 2.046-2.242.328 1.621 1.591-.381 2.249 2.004-1.062 2.004 1.062-.383-2.249 1.621-1.591-2.24-.328zm2.281-8.475 1.003 2.046 2.24.328-1.621 1.591.383 2.249-2.004-1.062-2.004 1.062.383-2.249-1.626-1.591 2.242-.328zm-37.514 0 1.003 2.046 2.242.328-1.623 1.591.383 2.249-2.004-1.062-2.004 1.062.383-2.249-1.623-1.591 2.24-.328zm18.757 18.892 1.003 2.046 2.24.328-1.621 1.591.382 2.25-2.004-1.061-2.004 1.061.383-2.25-1.621-1.591 2.24-.328z" fill="#fff9de"/></svg>